<svg xmlns="http://www.w3.org/2000/svg" viewBox="0 0 48 48" fill="none">
  <rect width="48" height="48" rx="10" fill="#172B4D"/>
  <g transform="translate(10, 12)">
    <!-- Confluence flowing "C" waves -->
    <!-- Bottom wave -->
    <path d="M2.5 19.5C2.5 19.5 4.0 17.0 6.5 17.0C10.5 17.0 11.5 21.0 16.0 21.0C18.5 21.0 20.5 19.0 20.5 19.0L24.5 24.0C24.5 24.0 22.0 27.0 17.5 27.0C13.0 27.0 11.5 23.0 7.5 23.0C4.5 23.0 2.5 25.0 2.5 25.0L2.5 19.5Z" fill="white" fill-opacity="0.65"/>
    <!-- Top wave -->
    <path d="M24.5 4.5C24.5 4.5 23.0 7.0 20.5 7.0C16.5 7.0 15.5 3.0 11.0 3.0C8.5 3.0 6.5 5.0 6.5 5.0L2.5 0C2.5 0 5.0 -3.0 9.5 -3.0C14.0 -3.0 15.5 1.0 19.5 1.0C22.5 1.0 24.5 -1.0 24.5 -1.0L24.5 4.5Z" fill="white"/>
  </g>
</svg>
