<svg xmlns="http://www.w3.org/2000/svg" viewBox="0 0 48 48" fill="none">
  <rect width="48" height="48" rx="10" fill="#2C9B3B"/>
  <g transform="translate(12, 10)">
    <!-- Freshdesk headset/support icon -->
    <path d="M12 2C6.48 2 2 6.48 2 12v6c0 1.1.9 2 2 2h2v-8H4.07C4.56 7.57 7.92 4 12 4s7.44 3.57 7.93 8H18v8h2c1.1 0 2-.9 2-2v-6c0-5.52-4.48-10-10-10z" fill="white"/>
    <rect x="4" y="14" width="3" height="8" rx="1.5" fill="white"/>
    <rect x="17" y="14" width="3" height="8" rx="1.5" fill="white"/>
    <path d="M15 24c0 1.66-1.34 3-3 3s-3-1.34-3-3" fill="none" stroke="white" stroke-width="1.5" stroke-linecap="round"/>
  </g>
</svg>
