<svg xmlns="http://www.w3.org/2000/svg" viewBox="0 0 48 48" fill="none">
  <rect width="48" height="48" rx="10" fill="#003087"/>
  <!-- PayPal double-P logo -->
  <path d="M15 10 L22 10 C26 10 29 12.5 29 16.5 C29 21.5 25 24 21 24 L18 24 L16.5 32 L11 32 Z M18 13 L17 21 L20 21 C22.5 21 24.5 19.5 24.5 16.5 C24.5 14.5 23 13 20.5 13 Z" fill="white"/>
  <path d="M21 14 L28 14 C32 14 35 16.5 35 20.5 C35 25.5 31 28 27 28 L24 28 L22.5 36 L17 36 Z M24 17 L23 25 L26 25 C28.5 25 30.5 23.5 30.5 20.5 C30.5 18.5 29 17 26.5 17 Z" fill="#009CDE"/>
</svg>
