<svg xmlns="http://www.w3.org/2000/svg" viewBox="0 0 48 48" fill="none">
  <rect width="48" height="48" rx="10" fill="#00A1E0"/>
  <g transform="translate(8, 10)">
    <!-- Salesforce cloud shape -->
    <path d="M13.5 6C14.9 3.6 17.5 2 20.5 2C23.2 2 25.6 3.3 27 5.3C28.1 4.5 29.5 4 31 4C34.9 4 38 7.1 38 11C38 11.3 38 11.6 37.9 11.9C39.7 12.8 41 14.7 41 16.9C41 20 38.5 22.5 35.4 22.5H8.5C5.5 22.5 3 20 3 17C3 14.5 4.7 12.4 7 11.7C6.7 11 6.5 10.2 6.5 9.4C6.5 6.4 9 4 12 4C12.6 4 13.1 4.1 13.5 6Z" fill="white" opacity="0.95"/>
  </g>
  <text x="24" y="38" text-anchor="middle" font-family="Arial, sans-serif" font-size="7" font-weight="bold" fill="white">SF</text>
</svg>
